<?xml version="1.0" encoding="iso-8859-1"?>
<!-- Uploaded to: SVG Repo, www.svgrepo.com, Generator: SVG Repo Mixer Tools -->
<!DOCTYPE svg PUBLIC "-//W3C//DTD SVG 1.1//EN" "http://www.w3.org/Graphics/SVG/1.1/DTD/svg11.dtd">
<svg fill="#000000" height="800px" width="800px" version="1.1" id="Capa_1" xmlns="http://www.w3.org/2000/svg" xmlns:xlink="http://www.w3.org/1999/xlink" 
	 viewBox="0 0 226.655 226.655" xml:space="preserve">
<g>
	<path d="M184.022,4.69c-6.379-1.488-13.352,1.883-19.986,7.682c-15.479-7.677-32.664-11.725-50.064-11.725
		c-16.709,0-32.887,3.706-47.535,10.526c-0.555,0.19-1.076,0.447-1.563,0.758c-18.309,8.87-34.137,22.637-45.488,40.146
		c-4.209-1.846-8.203-1.948-11.814-0.176c-5.17,2.534-12.283,10.483-3.229,35.295c-2.023,8.523-3.049,17.302-3.049,26.133
		c0,62.132,50.547,112.68,112.678,112.68c62.135,0,112.683-50.548,112.683-112.68c0-28.744-10.709-55.881-30.229-76.806
		C197.161,26.684,197.315,7.802,184.022,4.69z M113.971,15.647c13.615,0,27.08,2.848,39.433,8.292
		c-5.131,6.681-9.629,14.16-12.891,20.908c-3.896-0.697-7.979-0.278-11.99,1.29c-0.709,0.277-1.404,0.598-2.094,0.938
		c-5.5-6.776-15.264-13.026-30.191-11.638c-0.184-6.37-1.494-12.318-5.408-16.829c-0.043-0.05-0.09-0.093-0.133-0.142
		C98.221,16.619,106.026,15.647,113.971,15.647z M70.458,25.891c4.936,0.398,7.904,1.236,9.045,2.55
		c1.666,1.921,2.139,7.118,1.404,15.445c-0.217,2.456,0.787,4.862,2.688,6.436c1.9,1.573,4.451,2.115,6.824,1.441
		c14.564-4.114,21.512,0.974,24.586,5.021c-2.277,2.997-4.236,6.451-5.803,10.267c-3.732-0.628-7.471-0.321-11.084,0.929
		c-8.311,2.874-14.189,10.092-17.658,15.637c-3.295-0.997-6.844-1.365-10.564-1.087c-4.672-7.723-12.584-13.363-21.144-14.694
		c-4.119-0.644-8.018-0.22-11.432,1.171c-2.021-2.877-4.043-5.429-6.053-7.649C40.962,45.951,54.604,33.784,70.458,25.891z
		 M211.655,113.328c0,53.86-43.82,97.68-97.683,97.68c-53.859,0-97.678-43.819-97.678-97.68c0-8.284,1.039-16.513,3.086-24.459
		c0.459-1.558,0.412-3.259-0.201-4.842c-3.604-9.271-4.227-14.602-4.18-17.313c0.498,0.338,1.068,0.772,1.699,1.306
		c0.143,0.134,0.289,0.263,0.443,0.386c2.889,2.556,6.963,7.192,11.754,15.167c1.285,2.14,3.551,3.499,6.045,3.627
		c2.496,0.132,4.887-0.994,6.383-2.99c1.049-1.397,2.771-1.919,5.123-1.554c4.375,0.681,9.912,4.548,12.023,10.621
		c1.275,3.667,5.139,5.754,8.902,4.813c4.586-1.146,8.408-0.786,11.357,1.074c0.139,0.087,0.275,0.178,0.412,0.273
		c0.107,0.082,0.219,0.162,0.332,0.239c3.588,2.686,6.25,7.896,7.725,15.148c0.793,3.896,4.49,6.497,8.422,5.928
		c19.736-2.849,23.832,16.627,24.23,18.818c0.695,4.083,4.566,6.833,8.65,6.137c4.084-0.694,6.83-4.567,6.137-8.65
		c-1.947-11.45-11.596-31.345-34.395-31.615c-1.746-5.438-4.172-9.964-7.256-13.547c2.408-3.886,6.082-8.372,10.031-9.738
		c1.451-0.501,3.783-0.94,7.303,1.021c2.047,1.14,4.51,1.258,6.656,0.319c2.149-0.939,3.732-2.828,4.283-5.105
		c2.629-10.852,8.498-16.631,12.725-18.282c2.352-0.921,4.438-0.742,6.371,0.548c1.896,1.265,4.268,1.599,6.438,0.905
		c2.172-0.692,3.912-2.335,4.727-4.464c4.586-11.975,12.334-23.023,18.896-30.039c0.234-0.25,0.465-0.492,0.695-0.731
		c3.762-3.907,7.074-6.421,9.078-6.913c0.684,1.375,2.238,6.086,1.002,19.155c-0.219,2.326,0.66,4.586,2.314,6.151
		C201.661,63.117,211.655,87.472,211.655,113.328z"/>
	<path d="M171.028,58.59c-2.805,2.005-3.453,5.907-1.453,8.715c0.096,0.135,9.658,13.703,13.805,32.378
		c2.098,9.448,2.475,18.444,1.16,26.958c-8.338-16.893-21.588-24.263-22.326-24.663c-3.021-1.638-6.789-0.518-8.443,2.497
		c-1.654,3.015-0.547,6.808,2.459,8.477c0.74,0.411,17.734,10.112,21.68,33.569c-3.074,5.781-7.096,11.273-12.076,16.46
		c-2.391,2.489-2.311,6.445,0.18,8.837c1.211,1.164,2.769,1.742,4.328,1.742c1.641,0,3.281-0.644,4.508-1.921
		c19.938-20.759,27.072-46.732,20.633-75.114c-4.773-21.04-15.297-35.877-15.744-36.498
		C177.727,57.225,173.833,56.585,171.028,58.59z"/>
	<path d="M83.309,179.818c-43.846-25.752-37.512-70.169-37.207-72.126c0.545-3.403-1.77-6.605-5.174-7.156
		c-3.402-0.553-6.615,1.765-7.168,5.172c-0.09,0.563-2.182,13.994,2.094,31.12c3.951,15.831,14.293,38.01,41.125,53.77
		c0.994,0.584,2.084,0.861,3.158,0.861c2.145,0,4.23-1.104,5.396-3.086C87.282,185.397,86.286,181.567,83.309,179.818z"/>
</g>
</svg>