<?xml version="1.0" standalone="no"?>
<!DOCTYPE svg PUBLIC "-//W3C//DTD SVG 20010904//EN"
 "http://www.w3.org/TR/2001/REC-SVG-20010904/DTD/svg10.dtd">
<svg version="1.0" xmlns="http://www.w3.org/2000/svg"
 width="1280.000000pt" height="864.000000pt" viewBox="0 0 1280.000000 864.000000"
 preserveAspectRatio="xMidYMid meet">
<metadata>
Created by potrace 1.15, written by Peter Selinger 2001-2017
</metadata>
<g transform="translate(0.000000,864.000000) scale(0.100000,-0.100000)"
fill="#000000" stroke="none">
<path d="M7920 8621 c-414 -90 -694 -432 -717 -872 l-6 -116 -96 -6 c-53 -4
-341 -13 -641 -22 -300 -9 -611 -19 -693 -23 l-148 -7 82 -100 81 -100 -53 -6
c-30 -4 -279 -12 -554 -19 -275 -7 -516 -15 -536 -19 l-37 -6 171 -144 170
-144 493 7 c272 4 494 5 494 2 0 -9 -236 -173 -760 -528 -272 -184 -621 -422
-775 -528 -154 -106 -341 -235 -416 -286 -75 -51 -141 -99 -147 -107 -6 -7
-52 -249 -101 -536 -49 -287 -91 -524 -93 -526 -1 -2 -316 -8 -698 -14 -757
-11 -771 -12 -1036 -76 -285 -68 -495 -161 -824 -365 -288 -178 -540 -286
-730 -314 l-85 -12 -8 -115 c-4 -62 -6 -146 -5 -185 3 -65 7 -75 39 -115 67
-82 70 -63 -45 -290 -106 -208 -140 -303 -186 -507 -34 -155 -70 -468 -56
-491 4 -6 34 3 74 22 65 31 70 32 197 30 72 0 150 -5 175 -10 l45 -9 7 -139
c8 -172 35 -327 74 -429 7 -18 4 -19 -35 -12 -23 3 -81 26 -129 50 -48 24 -97
47 -110 50 l-22 7 20 -50 c42 -107 34 -215 -21 -293 -19 -26 -19 -28 -2 -55
28 -43 24 -169 -10 -255 -14 -38 -24 -68 -23 -68 2 0 56 20 119 44 130 51 239
76 325 76 l59 0 44 -62 c155 -223 301 -371 537 -550 302 -228 652 -357 1053
-389 493 -39 1024 140 1412 476 48 41 99 80 113 85 14 6 64 10 112 10 48 0
209 7 357 15 149 9 306 16 350 16 44 -1 136 3 205 9 69 5 285 16 480 25 195 8
483 22 640 30 157 8 440 21 630 30 637 28 763 36 851 55 289 62 518 233 665
496 103 185 119 248 118 469 0 150 -4 181 -26 266 -54 200 -140 343 -304 505
l-112 111 61 79 c54 71 215 281 427 559 42 55 205 267 361 470 157 204 333
433 391 510 l105 140 284 127 c157 69 293 128 303 130 15 2 25 -19 62 -142 24
-80 43 -149 43 -155 0 -5 -54 -36 -118 -68 -334 -164 -618 -379 -776 -587
-500 -660 -663 -1269 -535 -2002 48 -274 136 -596 192 -698 61 -111 148 -250
157 -250 4 0 59 32 122 71 l113 72 36 -44 c275 -339 587 -569 935 -689 263
-90 435 -120 701 -120 313 0 616 74 909 222 216 108 346 202 519 372 205 201
342 400 453 656 117 270 170 504 180 795 13 402 -91 811 -293 1146 -19 31 -34
59 -34 62 0 2 52 43 115 91 63 47 115 90 115 94 0 28 -251 324 -362 427 -268
248 -641 450 -998 541 -229 58 -527 84 -732 66 -73 -7 -146 -15 -163 -18 l-30
-5 -43 168 c-31 122 -42 183 -40 223 l3 55 158 -3 157 -4 0 214 c0 118 -3 397
-7 621 -5 359 -8 406 -22 410 -27 7 -379 -12 -520 -28 -164 -19 -247 -50 -341
-129 -78 -64 -117 -112 -164 -197 -44 -82 -63 -152 -71 -264 l-7 -90 -118 0
-117 0 -88 -44 -88 -45 -106 18 c-58 10 -189 33 -291 52 -102 19 -434 79 -739
134 -305 55 -555 101 -558 103 -2 2 32 52 74 110 72 97 169 224 616 806 87
113 178 236 202 272 60 91 96 117 192 135 124 23 223 56 239 78 10 15 14 57
14 168 0 163 2 168 70 168 17 0 46 7 65 14 42 18 41 14 15 196 -11 74 -20 149
-20 167 0 30 2 32 45 39 25 3 47 9 49 13 7 14 -34 192 -59 255 -83 207 -238
377 -432 475 -164 82 -388 111 -563 72z m-322 -3847 c28 -4 32 -8 21 -20 -22
-27 -550 -434 -562 -434 -16 0 -46 20 -347 236 -261 188 -300 217 -300 229 0
7 1137 -3 1188 -11z m3411 -1309 c45 -9 112 -25 149 -36 138 -42 367 -161 358
-185 -4 -11 -448 -582 -502 -647 l-23 -28 -88 27 c-48 15 -89 28 -90 29 -7 4
-203 812 -203 833 0 11 8 23 18 26 32 10 299 -4 381 -19z m-4952 -71 c142 -82
266 -169 312 -219 32 -35 41 -52 41 -80 0 -63 -106 -157 -268 -239 l-54 -27 8
23 c41 131 46 255 13 345 -24 64 -72 144 -126 211 -19 23 -32 42 -29 42 2 0
49 -25 103 -56z m4174 -41 c6 -15 53 -199 105 -408 52 -209 97 -387 100 -396
3 -11 -17 -41 -51 -80 -142 -161 -185 -326 -138 -527 10 -45 13 -76 7 -81 -5
-6 -153 -92 -329 -193 -176 -101 -335 -193 -353 -203 -44 -26 -59 -15 -95 71
-74 180 -107 353 -107 564 0 334 108 621 341 907 109 132 259 250 428 335 41
21 77 38 79 38 1 0 7 -12 13 -27z m-7471 -7 c88 -20 199 -52 218 -65 11 -6 -4
-46 -66 -178 -44 -93 -101 -216 -127 -274 -26 -57 -53 -110 -60 -118 -11 -11
-25 -11 -77 -2 -36 6 -104 11 -152 11 -439 0 -775 -386 -717 -825 7 -53 21
-122 32 -152 10 -31 17 -58 14 -61 -15 -16 -622 -89 -634 -76 -6 5 -19 55 -30
111 -26 128 -29 382 -5 517 48 274 189 545 388 741 217 215 479 340 811 389
66 10 333 -2 405 -18z m548 -241 c97 -73 209 -182 276 -269 90 -117 101 -137
85 -147 -19 -12 -646 -12 -653 0 -11 17 201 461 220 461 6 0 39 -20 72 -45z
m8423 -32 c174 -178 283 -375 346 -622 31 -126 40 -249 31 -426 -11 -213 -43
-335 -138 -532 -73 -149 -175 -287 -303 -409 -150 -144 -310 -239 -520 -309
-273 -91 -631 -84 -887 17 -255 100 -480 271 -629 478 -30 42 -31 45 -14 58
20 14 392 224 592 334 68 37 130 68 136 68 7 0 34 -17 60 -39 211 -174 500
-158 695 39 108 109 150 212 150 372 0 120 -34 215 -122 339 -9 13 25 63 197
290 275 360 314 409 328 409 7 0 42 -30 78 -67z m-8370 -1277 c348 -124 469
-173 469 -191 0 -20 -59 -178 -74 -198 -13 -17 -32 -11 -306 87 -161 58 -295
107 -298 110 -3 3 9 41 27 85 17 44 31 84 31 90 0 13 18 61 24 61 2 0 59 -20
127 -44z m-1121 -980 c734 -106 734 -107 743 -116 13 -12 -87 -46 -200 -69
-265 -54 -535 -29 -789 72 -92 37 -239 119 -287 159 -32 27 -32 27 -7 28 14 0
257 -34 540 -74z"/>
</g>
</svg>
